<?xml version="1.0" encoding="UTF-8" standalone="no"?>
<!-- Created with Inkscape (http://www.inkscape.org/) -->

<svg
   width="110mm"
   height="125mm"
   viewBox="0 0 110 125"
   version="1.1"
   id="svg5"
   inkscape:version="1.2.2 (b0a8486541, 2022-12-01)"
   sodipodi:docname="WFLKTCODER_Logo.svg"
   xmlns:inkscape="http://www.inkscape.org/namespaces/inkscape"
   xmlns:sodipodi="http://sodipodi.sourceforge.net/DTD/sodipodi-0.dtd"
   xmlns="http://www.w3.org/2000/svg"
   xmlns:svg="http://www.w3.org/2000/svg">
  <sodipodi:namedview
     id="namedview7"
     pagecolor="#ffffff"
     bordercolor="#000000"
     borderopacity="0.25"
     inkscape:showpageshadow="2"
     inkscape:pageopacity="0.0"
     inkscape:pagecheckerboard="0"
     inkscape:deskcolor="#d1d1d1"
     inkscape:document-units="mm"
     showgrid="false"
     inkscape:zoom="0.72515432"
     inkscape:cx="90.325601"
     inkscape:cy="341.30666"
     inkscape:window-width="1368"
     inkscape:window-height="890"
     inkscape:window-x="-6"
     inkscape:window-y="-6"
     inkscape:window-maximized="1"
     inkscape:current-layer="svg5" />
  <defs
     id="defs2">
    <rect
       x="164.103"
       y="231.67482"
       width="293.73059"
       height="137.90169"
       id="rect1945" />
  </defs>
  <path
     style="color:lightslategray;fill:lightslategray;-inkscape-stroke:none"
     d="m 60,49.578125 v 2.201172 103.263673 h 90 V 49.578125 Z m 4.400391,4.402344 H 145.59961 V 150.64258 H 64.400391 Z"
     id="path129"
     transform="translate(-50.000001,-39.810973)" />
  <path
     d="M 89.325663,126.56065 H 71.757731 V 98.791385 h 3.692623 v 24.486935 h 13.875309 z"
     id="path133"
     style="font-size:38.1944px;font-family:'Josefin Sans';-inkscape-font-specification:'Josefin Sans';display:inline;fill:lightslategray;stroke-width:6.71409"
     transform="translate(-50.000001,-39.810973)" />
  <path
     d="m 115.34187,126.56065 h -4.79295 l -10.984621,-12.36469 -2.760142,2.94664 v 9.41805 H 93.111534 V 98.791385 h 3.692623 V 113.28213 L 110.28782,98.791385 h 4.47591 l -12.40199,13.054725 z"
     id="path135"
     style="font-size:38.1944px;font-family:'Josefin Sans';-inkscape-font-specification:'Josefin Sans';display:inline;fill:lightslategray;stroke-width:6.71409"
     transform="translate(-50.000001,-39.810973)" />
  <path
     d="m 139.28797,102.07372 h -9.9216 v 24.48693 h -3.69262 v -24.48693 h -9.92159 v -3.282335 h 23.53581 z"
     id="path137"
     style="font-size:38.1944px;font-family:'Josefin Sans';-inkscape-font-specification:'Josefin Sans';display:inline;fill:lightslategray;stroke-width:6.71409"
     transform="translate(-50.000001,-39.810973)" />
  <path
     d="m 112.13291,57.960912 -8.81837,33.92906 H 98.23316 L 91.100993,63.72589 84.128332,91.889972 H 79.160881 L 70.18301,57.960912 h 4.625654 l 7.132167,28.209655 7.018234,-28.209655 h 4.580081 l 7.086594,28.483092 7.08659,-28.483092 z"
     id="path128"
     style="font-size:46.6667px;font-family:'Josefin Sans';-inkscape-font-specification:'Josefin Sans';display:inline;fill:lightslategray;stroke-width:4.1017"
     transform="translate(-50.000001,-39.810973)" />
  <path
     d="m 140.45649,61.971332 h -17.15821 v 9.570319 h 14.74285 v 4.010419 h -14.74285 v 16.337902 h -4.51172 v -33.92906 h 21.66993 z"
     id="path130"
     style="font-size:46.6667px;font-family:'Josefin Sans';-inkscape-font-specification:'Josefin Sans';display:inline;fill:lightslategray;stroke-width:4.1017"
     transform="translate(-50.000001,-39.810973)" />
  <path
     d="m 83.282164,144.82689 q -0.504832,0.22029 -0.917876,0.41304 -0.403865,0.19275 -1.064736,0.40387 -0.559904,0.17439 -1.220775,0.29372 -0.651692,0.1285 -1.441065,0.1285 -1.486959,0 -2.707734,-0.41305 -1.211597,-0.42222 -2.111115,-1.31256 -0.881161,-0.87198 -1.376814,-2.21208 -0.495653,-1.34928 -0.495653,-3.12996 0,-1.68889 0.477295,-3.01981 0.477296,-1.33092 1.376814,-2.24879 0.871983,-0.89034 2.101936,-1.35846 1.239133,-0.46812 2.744449,-0.46812 1.101452,0 2.193724,0.26619 1.101451,0.26618 2.44155,0.93623 v 2.15701 h -0.137681 q -1.128988,-0.94541 -2.239618,-1.37682 -1.11063,-0.4314 -2.377298,-0.4314 -1.0372,0 -1.872467,0.33962 -0.826089,0.33043 -1.477781,1.0372 -0.633334,0.6884 -0.991306,1.74396 -0.348793,1.04638 -0.348793,2.42319 0,1.44107 0.385508,2.47827 0.394687,1.0372 1.009664,1.68889 0.642513,0.67923 1.496138,1.00966 0.862803,0.32126 1.817394,0.32126 1.312563,0 2.459908,-0.44976 1.147345,-0.44976 2.147829,-1.34928 h 0.128503 z"
     id="path140"
     style="font-size:18.7981px;font-family:'Josefin Sans';-inkscape-font-specification:'Josefin Sans';display:inline;fill:lightslategray;stroke-width:3.30446"
     transform="translate(-50.000001,-39.810973)" />
  <path
     d="m 96.04064,133.72059 q 0.835267,0.91787 1.275848,2.24879 0.449759,1.33092 0.449759,3.01981 0,1.6889 -0.458938,3.029 -0.449759,1.33092 -1.266669,2.22125 -0.844446,0.92706 -2.000969,1.39518 -1.147345,0.46811 -2.625126,0.46811 -1.441065,0 -2.625125,-0.47729 -1.174881,-0.4773 -2.000969,-1.386 -0.826089,-0.90869 -1.275848,-2.23043 -0.44058,-1.32175 -0.44058,-3.01982 0,-1.67053 0.44058,-2.99227 0.44058,-1.33092 1.285026,-2.27633 0.807731,-0.89952 2.00097,-1.37682 1.202417,-0.47729 2.615946,-0.47729 1.468602,0 2.634304,0.48647 1.174882,0.4773 1.991791,1.36764 z m -0.165217,5.2686 q 0,-2.66184 -1.193239,-4.1029 -1.193239,-1.45025 -3.25846,-1.45025 -2.083578,0 -3.276817,1.45025 -1.18406,1.44106 -1.18406,4.1029 0,2.68938 1.211596,4.12127 1.211597,1.42271 3.249281,1.42271 2.037685,0 3.240102,-1.42271 1.211597,-1.43189 1.211597,-4.12127 z"
     id="path142"
     style="font-size:18.7981px;font-family:'Josefin Sans';-inkscape-font-specification:'Josefin Sans';display:inline;fill:lightslategray;stroke-width:3.30446"
     transform="translate(-50.000001,-39.810973)" />
  <path
     d="m 112.19526,138.99837 q 0,1.86329 -0.81691,3.37779 -0.80773,1.51449 -2.15701,2.34976 -0.93623,0.57826 -2.09276,0.83527 -1.14734,0.257 -3.02899,0.257 h -3.45121 v -13.66717 h 3.4145 q 2.00097,0 3.17585,0.29372 1.18406,0.28454 2.00097,0.78937 1.39517,0.87198 2.17536,2.32223 0.7802,1.45024 0.7802,3.44203 z m -1.90001,-0.0275 q 0,-1.60629 -0.5599,-2.70774 -0.5599,-1.10145 -1.67053,-1.73478 -0.80774,-0.45894 -1.71643,-0.63334 -0.9087,-0.18357 -2.17537,-0.18357 h -1.70725 v 10.54639 h 1.70725 q 1.31256,0 2.28551,-0.19275 0.98213,-0.19276 1.79904,-0.71594 1.01884,-0.6517 1.52367,-1.71643 0.51401,-1.06474 0.51401,-2.66184 z"
     id="path144"
     style="font-size:18.7981px;font-family:'Josefin Sans';-inkscape-font-specification:'Josefin Sans';display:inline;fill:lightslategray;stroke-width:3.30446"
     transform="translate(-50.000001,-39.810973)" />
  <path
     d="m 124.13682,145.81819 h -9.00436 v -13.66717 h 9.00436 v 1.61546 h -7.18697 v 3.74493 h 7.18697 v 1.61547 h -7.18697 v 5.07585 h 7.18697 z"
     id="path146"
     style="font-size:18.7981px;font-family:'Josefin Sans';-inkscape-font-specification:'Josefin Sans';display:inline;fill:lightslategray;stroke-width:3.30446"
     transform="translate(-50.000001,-39.810973)" />
  <path
     d="m 138.32718,145.81819 h -2.35894 l -4.57102,-5.43382 h -2.56087 v 5.43382 h -1.8174 v -13.66717 h 3.82755 q 1.23913,0 2.06522,0.16522 0.82608,0.15604 1.48696,0.56908 0.74347,0.46812 1.15652,1.18406 0.42222,0.70676 0.42222,1.79904 0,1.47778 -0.74348,2.47826 -0.74348,0.99131 -2.04686,1.49614 z m -4.24976,-9.82127 q 0,-0.58744 -0.21111,-1.0372 -0.20194,-0.45894 -0.67923,-0.77102 -0.39469,-0.26618 -0.93623,-0.36715 -0.54155,-0.11014 -1.27585,-0.11014 h -2.13865 v 5.15846 h 1.83575 q 0.8628,0 1.50532,-0.14686 0.64251,-0.15604 1.09227,-0.56908 0.41304,-0.38551 0.6058,-0.88116 0.20193,-0.50484 0.20193,-1.27585 z"
     id="path148"
     style="font-size:18.7981px;font-family:'Josefin Sans';-inkscape-font-specification:'Josefin Sans';display:inline;fill:lightslategray;stroke-width:3.30446"
     transform="translate(-50.000001,-39.810973)" />
</svg>
